<?xml version='1.0' encoding='utf-8'?>
<svg xmlns="http://www.w3.org/2000/svg" width="256.42328mm" height="210.87616mm" viewBox="0 0 256.42328 210.87616" version="1.1" id="svg5" xml:space="preserve"><defs id="defs2" /><g id="layer1"><path style="fill:#000000" d="m 50.97600000000057 210.73900000000003 c -2.41,-0.5434 -4.36,-2.8598 -4.37,-5.1714 0,-0.5527 1.27,-7.2756 2.81,-14.9397 2.42,-12.0138 5.43,-27.6437 6.22,-32.2792 0.61,-3.5451 2.07,-4.9446 7.39,-7.0875 1.74,-0.6993 8.17,-3.3911 14.3,-5.9818 6.12,-2.5907 11.56,-4.8732 12.08,-5.0722 1.24,-0.4734 1.2,-0.8954 -0.15,-1.4543 -0.9,-0.375 -3.22,-0.3506 -13.14,0.139 -6.62,0.3268 -15.69,0.7675 -20.16,0.9793 -6.55,0.3111 -8.19,0.4897 -8.54,0.9277 -0.23,0.2984 -1.21,2.3848 -2.17,4.6364 -13.63,32.0343 -17.39,40.4811 -18.52,41.5375 -1.7,1.5885 -3.63,1.848 -5.79,0.7774 -3.5,-1.7395 -4.13,-4.6929 -2.05,-9.6459 0.65,-1.5522 4.82,-11.3154 9.28,-21.6958 4.45,-10.3805 8.52,-19.9055 9.04,-21.1667 1.41,-3.4209 2.17,-4.4785 3.81,-5.317 1.56,-0.797 2.29,-0.8444 30.21,-1.9579 6.01,-0.2398 6.08,-0.2521 5.47,-0.9313 -0.92,-1.0171 -2.02,-1.5093 -14.56,-6.5431 -6.31,-2.5308 -13.37,-5.4069 -15.69,-6.3913 -2.32,-0.9845 -4.4,-1.79 -4.62,-1.79 -0.23,0 -1.18,0.8335 -2.12,1.8521 -7.32,7.9454 -23.79,24.6956 -24.7,25.1285 -2.46,1.1667 -5.53,0.3444 -7.04,-1.8893 -1.08,-1.5815 -1.16,-4.082 -0.2,-5.9715 0.37,-0.7223 3.59,-4.3312 7.15,-8.0197 3.56,-3.6886 9.8,-10.1691 13.87,-14.4012 4.41,-4.592 7.95,-7.9828 8.79,-8.409 2.07,-1.0548 4.22,-0.7438 8.86,1.2809 7.51,3.2758 20.39,8.673 20.48,8.5815 0.1,-0.051 -0.23,-1.0846 -0.63,-2.2972 -0.67,-2.0438 -1.01,-2.4667 -4.64,-5.7954 -2.16,-1.9749 -8.18,-7.6503 -13.39,-12.612 -5.21,-4.9617 -9.66,-8.9727 -9.88,-8.9134 -0.49,0.1295 -9.8,3.7672 -22.1,8.6366 -9.95,3.9366 -11.7,4.3042 -13.65,2.8648 -3.47,-2.5747 -3.5,-7.4291 -0.1,-9.4329 1.5,-0.8711 32.87,-13.1383 35.86,-14.02 1.3,-0.3849 1.78,-0.3609 3.47,0.1716 1.83,0.5749 2.7,1.3295 12.25,10.6432 l 10.28,10.0244 0.3,-2.8307 0.3,-2.8308 -6.44,-10.4865 c -3.55,-5.7675 -7.89,-12.8295 -9.65,-15.6931 -1.76,-2.8637 -3.44,-5.2773 -3.74,-5.3636 -0.29,-0.086 -2.19,-0.3283 -4.23,-0.5377 -2.04,-0.2095 -9.42,-1.0212 -16.4,-1.8037 -13.97,-1.5646 -15.14,-1.8584 -16.67,-4.1621 -1.44,-2.1656 -0.83,-5.8274 1.23,-7.4486 1.89,-1.488 2.32,-1.4729 21.36,0.7593 9.94,1.1646 18.66,2.2715 19.39,2.4599 2.81,0.725 3.07,1.0707 13.22,17.9517 3.56,5.9179 6.61,10.8067 6.77,10.864 0.17,0.057 0.47,-0.3863 0.68,-0.9857 0.21,-0.5995 0.7,-1.5441 1.1,-2.099 0.4,-0.555 0.72,-1.2571 0.72,-1.5604 0,-0.5 -9.73,-23.7138 -13.69,-32.6445 l -1.62,-3.6715 -4.84,-3.5604 c -2.66,-1.9583 -8.54,-6.2867 -13.07,-9.6188 -4.53,-3.3321 -8.77,-6.6172 -9.43,-7.3002 -3.25,-3.3793 -0.7,-9.0865 4.1,-9.1445 2.62,-0.032 0.79,-1.2821 26.62,18.176 3.04,2.2921 5.85,4.6796 6.23,5.3056 0.72,1.1661 2.76,5.9602 9.66,22.6575 2.16,5.2388 3.98,9.5951 4.05,9.6807 0.1,0.086 0.95,-0.6512 1.96,-1.6375 6.58,-6.4002 16.02,-12.0506 25.13,-15.0463 8.55,-2.8121 14.05,-3.5908 23.27,-3.2971 10.31,0.3285 17.39,2.1185 26.82,6.7897 5.78,2.8582 9.79,5.5707 15.08,10.204 1.9,1.6544 3.52,3.0079 3.62,3.0079 0.1,0 0.18,-0.1689 0.18,-0.3753 0,-0.2064 1.1,-2.9666 2.45,-6.1337 1.35,-3.1672 4.06,-9.6225 6.03,-14.3451 4.29,-10.2926 4.87,-11.4509 6.39,-12.8906 1.77,-1.6696 28.16,-21.3026 29.13,-21.6732 2.47,-0.9381 5.47,0.046 6.8,2.2334 1.6,2.6273 1.21,5.0341 -1.17,7.21 -1.33,1.2221 -8.55,6.6305 -22.03,16.5219 l -4.82,3.5322 -7.75,18.1179 c -6.33,14.8132 -7.67,18.2228 -7.33,18.6929 0.22,0.3162 0.86,1.4408 1.42,2.4991 l 1.02,1.9243 0.63,-1.2187 c 1.66,-3.2242 15.18,-24.9993 16.16,-26.0315 0.61,-0.6471 1.56,-1.4097 2.1,-1.6945 0.58,-0.3028 4.68,-0.9447 9.88,-1.5452 4.89,-0.5649 12.86,-1.5083 17.71,-2.0963 10.53,-1.2766 12.28,-1.3232 13.85,-0.3684 2.48,1.5139 3.44,4.6636 2.21,7.2213 -1.48,3.0408 -0.88,2.9062 -25.06,5.645 -6.11,0.6923 -11.61,1.3391 -12.22,1.4375 -1.22,0.1979 -1.12,0.061 -9.21,13.2148 -2.32,3.7835 -5.84,9.486 -7.81,12.6722 l -3.59,5.793 0.37,2.611 c 0.2,1.436 0.36,2.7185 0.35,2.85 0,0.1315 4.49,-4.1863 9.97,-9.595 10.95,-10.7981 12.31,-11.8174 15.18,-11.3592 1.78,0.2855 34.82,12.9783 36.82,14.1454 1.89,1.1104 2.74,2.8465 2.51,5.1835 -0.29,3.0842 -2.55,5.0466 -5.72,4.9734 -1.38,-0.032 -4.38,-1.0641 -13.59,-4.6769 -18.52,-7.2626 -18.95,-7.428 -19.4,-7.428 -0.24,0 -4.82,4.2466 -10.18,9.4368 -5.37,5.1903 -11.3,10.8531 -13.19,12.5842 -3.02,2.7745 -3.53,3.4193 -4.31,5.4439 -0.49,1.2632 -0.85,2.3351 -0.81,2.3821 0.1,0.047 5.64,-2.2909 12.41,-5.1954 6.78,-2.9045 13.01,-5.3747 13.85,-5.4892 3.25,-0.4459 3.47,-0.2626 18.54,15.3092 7.62,7.8654 14.23,14.8383 14.7,15.4954 1.26,1.7663 1.41,4.514 0.32,6.0922 -1.9,2.7679 -5,3.6251 -7.68,2.1212 -0.84,-0.4765 -6.53,-6.1148 -13.64,-13.5353 -6.71,-6.9953 -12.4,-12.8631 -12.64,-13.0395 -0.31,-0.2157 -3.62,0.9924 -10.12,3.6874 -5.31,2.2045 -13.06,5.3777 -17.22,7.0515 -4.9,1.9721 -7.73,3.3012 -8.05,3.7758 -0.47,0.7173 -0.42,0.7364 2.45,0.9301 1.61,0.1088 8.33,0.3733 14.93,0.5878 15.14,0.4927 17.45,0.7099 19.07,1.7987 1.5,1.0069 1.78,1.5786 8.08,16.3562 13.18,30.9009 14.42,33.9141 14.56,35.4541 0.31,3.6171 -2.91,6.7207 -6.44,6.1919 -2.92,-0.4377 -3.34,-1.1243 -9.44,-15.3641 -6.26,-14.5912 -14.05,-32.6047 -14.13,-32.6865 0,-0.03 -4.11,-0.2284 -9.06,-0.4408 -4.95,-0.2124 -14.2,-0.6464 -20.57,-0.9644 -11.37,-0.5685 -13.3,-0.496 -13.3,0.5009 0,0.16 1.31,0.8214 2.92,1.4698 7.72,3.1294 27.07,11.4612 28.39,12.2316 0.94,0.5402 1.78,1.4017 2.22,2.2734 0.83,1.6352 10.22,47.6578 10.22,50.1032 0,5.6824 -7.72,7.3418 -10.45,2.2478 -0.5,-0.9369 -1.65,-6.0484 -3.49,-15.5086 -1.51,-7.7611 -3.47,-17.7574 -4.37,-22.214 l -1.62,-8.103 -9,-3.8025 c -4.95,-2.0913 -12.09,-5.0906 -15.87,-6.6649 -3.79,-1.5744 -8.11,-3.4058 -9.6,-4.0698 -2.66,-1.1841 -2.74,-1.1965 -4.06,-0.6474 -2.28,0.9541 -8.91,2.5795 -12.98,3.1817 -2.38,0.3522 -6.2,0.5777 -9.88,0.5825 -8.64,0.012 -14.5,-0.8371 -21.24,-3.0769 l -3.61,-1.1982 -6.45,2.7608 c -3.54,1.5184 -11.21,4.7749 -17.03,7.2367 -5.82,2.4618 -11.18,4.7339 -11.92,5.0491 -0.74,0.3152 -1.41,0.6873 -1.5,0.8268 -0.18,0.3032 -2.56,12.4177 -5.24,26.7877 -3.36,17.948 -3.43,18.313 -4.22,19.482 -1.3,1.9297 -3.8,2.9109 -6.09,2.393 z m 81.21,-79.5418 c 3.87,-1.1491 7.33,-4.4559 8.48,-8.0948 0.87,-2.7578 0.1,-4.7939 -1.8,-4.7939 -1.17,0 -1.81,0.7665 -2.43,2.9123 -0.58,1.9815 -2.29,3.9524 -4.33,4.9762 -4.41,2.2216 -10.02,-0.2282 -11.58,-5.0663 -0.35,-1.0672 -0.79,-2.1387 -0.98,-2.3813 -0.55,-0.691 -2.3,-0.519 -3.13,0.3068 -1.83,1.8323 0.79,7.7032 4.63,10.362 3.12,2.1604 7.5,2.8603 11.14,1.779 z m -25.07,-19.419 c 3.8,-0.8022 6.45,-2.2812 9.08,-5.0722 2.35,-2.49 3.85,-5.1123 4.48,-7.8398 0.51,-2.2034 0.45,-6.5268 -0.12,-8.6564 -1.5,-5.619 -6.17,-10.2801 -12.16,-12.1308 -9.36,-2.8918 -19.79,3.7206 -21.64,13.7118 -1.6,8.6645 4.79,18.0782 13.57,19.9863 2.88,0.6254 3.83,0.6256 6.79,0 z m -5.3,-11.9323 c -1.6,-0.7294 -3.24,-2.7917 -3.52,-4.4322 -0.83,-4.921 4.04,-8.2693 8.65,-5.9448 1.75,0.8796 3.17,3.1167 3.17,4.9904 0,1.5905 -1.32,3.9774 -2.65,4.7996 -1.52,0.9414 -4.25,1.2246 -5.65,0.587 z m 3.71,-4.4011 c 1.58,-1.2754 0.58,-3.9475 -1.47,-3.9475 -2.21,0 -3.18,2.5207 -1.48,3.855 1.14,0.8992 1.93,0.9238 2.95,0.093 z m 50.35,16.3096 c 5.53,-1.1425 9.79,-4.41 12.24,-9.3875 3.4,-6.9003 2,-14.8472 -3.53,-20.0155 -3.9,-3.6506 -7.88,-5.1818 -12.65,-4.871 -6.8,0.4429 -13.05,4.9444 -15.37,11.0803 -0.96,2.5493 -1.29,6.9815 -0.72,9.7321 1.57,7.5493 8.73,13.6739 16.35,13.979 0.54,0.022 2.2,-0.2111 3.68,-0.5174 z m -6.07,-12.2425 c -2.74,-1.5561 -3.88,-4.4222 -2.84,-7.1539 1.65,-4.3143 7.74,-4.973 10.48,-1.1332 0.64,0.9015 0.82,1.6184 0.82,3.2712 0,2.5803 -0.96,4.1601 -3.14,5.1486 -1.92,0.8735 -3.61,0.8313 -5.32,-0.1327 z m 4.28,-4.3281 c 0.7,-0.7029 0.84,-1.1077 0.66,-1.8501 -0.36,-1.4052 -0.85,-1.8364 -2.1,-1.8364 -1.57,0 -2.35,0.683 -2.39,2.0972 0,0.842 0.2,1.3842 0.76,1.8412 1.1,0.8869 2,0.8125 3.07,-0.2519 z" id="path431" /></g></svg>